<?xml version="1.0" encoding="UTF-8" standalone="no"?>
<!-- Generator: Adobe Illustrator 16.0.0, SVG Export Plug-In . SVG Version: 6.00 Build 0)  -->

<svg
   xmlns:dc="http://purl.org/dc/elements/1.1/"
   xmlns:cc="http://creativecommons.org/ns#"
   xmlns:rdf="http://www.w3.org/1999/02/22-rdf-syntax-ns#"
   xmlns:svg="http://www.w3.org/2000/svg"
   xmlns="http://www.w3.org/2000/svg"
   xmlns:sodipodi="http://sodipodi.sourceforge.net/DTD/sodipodi-0.dtd"
   xmlns:inkscape="http://www.inkscape.org/namespaces/inkscape"
   version="1.1"
   id="Capa_1"
   x="0px"
   y="0px"
   width="512px"
   height="512px"
   viewBox="0 0 501.894 501.894"
   style="enable-background:new 0 0 501.894 501.894;"
   xml:space="preserve"
   inkscape:version="0.91 r13725"
   sodipodi:docname="cut.svg"
   inkscape:export-filename="E:\git\DigitKoodit\titeenit16\public\images\map\cut.png"
   inkscape:export-xdpi="7.0300002"
   inkscape:export-ydpi="7.0300002"><metadata
     id="metadata42"><rdf:RDF><cc:Work
         rdf:about=""><dc:format>image/svg+xml</dc:format><dc:type
           rdf:resource="http://purl.org/dc/dcmitype/StillImage" /></cc:Work></rdf:RDF></metadata><defs
     id="defs40" /><sodipodi:namedview
     pagecolor="#ffffff"
     bordercolor="#666666"
     borderopacity="1"
     objecttolerance="10"
     gridtolerance="10"
     guidetolerance="10"
     inkscape:pageopacity="0"
     inkscape:pageshadow="2"
     inkscape:window-width="1366"
     inkscape:window-height="705"
     id="namedview38"
     showgrid="false"
     inkscape:zoom="0.4609375"
     inkscape:cx="256"
     inkscape:cy="256"
     inkscape:window-x="-8"
     inkscape:window-y="-8"
     inkscape:window-maximized="1"
     inkscape:current-layer="Capa_1" /><g
     id="g3"
     style="fill:#c0392b;fill-opacity:1"><g
       id="iconos_14_"
       style="fill:#c0392b;fill-opacity:1"><path
         d="M117.876,1.09l-2.075,8.357c-29.194,117.523,20.951,181.448,23.103,184.107l4.628,5.747l117.791-49.276v50.232    c0,0,26.287,45.125,26.287,129.553s-40.755,160.124-40.755,160.124s81.406,17.461,100.531,10.185V223.552l9.562-39.302v-50.375    h38.25V40.574l-47.812-6.77V0h-66.938v24.327L200.42,12.996l0.076-0.344L117.876,1.09z M149.787,175.52    c-10.318-17.05-35.639-69.749-17.385-153.086l42.984,6.005c-4.839,27.789-9.543,79.923,9.046,131.532L149.787,175.52z"
         fill="#D80027"
         id="path6"
         style="fill:#c0392b;fill-opacity:1" /></g></g><g
     id="g8" /><g
     id="g10" /><g
     id="g12" /><g
     id="g14" /><g
     id="g16" /><g
     id="g18" /><g
     id="g20" /><g
     id="g22" /><g
     id="g24" /><g
     id="g26" /><g
     id="g28" /><g
     id="g30" /><g
     id="g32" /><g
     id="g34" /><g
     id="g36" /></svg>