<?xml version="1.0" encoding="UTF-8" standalone="no"?>
<!-- Created with Inkscape (http://www.inkscape.org/) -->

<svg
   xmlns:dc="http://purl.org/dc/elements/1.1/"
   xmlns:cc="http://creativecommons.org/ns#"
   xmlns:rdf="http://www.w3.org/1999/02/22-rdf-syntax-ns#"
   xmlns:svg="http://www.w3.org/2000/svg"
   xmlns="http://www.w3.org/2000/svg"
   xmlns:sodipodi="http://sodipodi.sourceforge.net/DTD/sodipodi-0.dtd"
   xmlns:inkscape="http://www.inkscape.org/namespaces/inkscape"
   id="svg2"
   version="1.1"
   inkscape:version="0.91 r13725"
   xml:space="preserve"
   width="751.98248"
   height="394.49875"
   viewBox="0 0 751.98248 394.49875"
   sodipodi:docname="Nortal.svg"><metadata
     id="metadata8"><rdf:RDF><cc:Work
         rdf:about=""><dc:format>image/svg+xml</dc:format><dc:type
           rdf:resource="http://purl.org/dc/dcmitype/StillImage" /><dc:title></dc:title></cc:Work></rdf:RDF></metadata><defs
     id="defs6"><clipPath
       clipPathUnits="userSpaceOnUse"
       id="clipPath20"><path
         d="m 0,315.599 601.586,0 L 601.586,0 0,0 0,315.599 Z"
         id="path22"
         inkscape:connector-curvature="0" /></clipPath></defs><sodipodi:namedview
     pagecolor="#ffffff"
     bordercolor="#666666"
     borderopacity="1"
     objecttolerance="10"
     gridtolerance="10"
     guidetolerance="10"
     inkscape:pageopacity="0"
     inkscape:pageshadow="2"
     inkscape:window-width="640"
     inkscape:window-height="480"
     id="namedview4"
     showgrid="false"
     inkscape:zoom="0.4893731"
     inkscape:cx="375.99124"
     inkscape:cy="197.24937"
     inkscape:window-x="0"
     inkscape:window-y="0"
     inkscape:window-maximized="0"
     inkscape:current-layer="g10" /><g
     id="g10"
     inkscape:groupmode="layer"
     inkscape:label="Nortal_logo_CMYK"
     transform="matrix(1.25,0,0,-1.25,0,394.49875)"><g
       id="g12"
       transform="translate(227.3291,197.6688)"><path
         d="m 0,0 14.542,0 31.923,-51.118 0,51.118 15.738,0 0,-77.992 -14.438,0 -32.027,50.681 0,-50.681 L 0,-77.992 0,0 Z"
         style="fill:#231f20;fill-opacity:1;fill-rule:nonzero;stroke:none"
         id="path14"
         inkscape:connector-curvature="0" /></g><g
       id="g16"><g
         id="g18"
         clip-path="url(#clipPath20)"><g
           id="g24"
           transform="translate(325.334,130.1636)"><path
             d="m 0,0 c 4.341,0 7.58,1.565 9.717,4.695 2.132,3.13 3.203,7.611 3.203,13.44 0,5.823 -1.071,10.268 -3.203,13.325 C 7.58,34.517 4.341,36.046 0,36.046 c -4.341,0 -7.58,-1.529 -9.717,-4.586 -2.137,-3.057 -3.203,-7.502 -3.203,-13.325 0,-5.901 1.05,-10.399 3.151,-13.492 C -7.674,1.549 -4.419,0 0,0 m 0,-12.234 c -9.119,0 -16.18,2.621 -21.171,7.867 -4.996,5.24 -7.492,12.743 -7.492,22.502 0,4.658 0.671,8.864 2.007,12.613 1.341,3.748 3.26,6.92 5.755,9.504 2.496,2.584 5.522,4.57 9.063,5.953 3.545,1.383 7.497,2.074 11.838,2.074 4.414,0 8.391,-0.691 11.942,-2.074 3.546,-1.383 6.567,-3.369 9.068,-5.953 2.495,-2.584 4.393,-5.756 5.698,-9.504 1.3,-3.749 1.95,-7.955 1.95,-12.613 0,-4.737 -0.666,-8.979 -2.007,-12.728 C 25.309,1.653 23.396,-1.529 20.901,-4.149 18.4,-6.774 15.379,-8.776 11.833,-10.159 8.287,-11.542 4.341,-12.234 0,-12.234"
             style="fill:#231f20;fill-opacity:1;fill-rule:nonzero;stroke:none"
             id="path26"
             inkscape:connector-curvature="0" /></g><g
           id="g28"
           transform="translate(361.3277,177.194)"><path
             d="m 0,0 14.766,0 0,-9.4 C 18.322,0.333 33.347,0.146 34.07,0 l 0,-12.826 c -1.243,0.026 -4.877,0.473 -9.452,-0.884 -4.622,-1.368 -9.416,-4.461 -9.416,-10.809 l 0,-32.989 L 0,-57.508 0,0 Z"
             style="fill:#231f20;fill-opacity:1;fill-rule:nonzero;stroke:none"
             id="path30"
             inkscape:connector-curvature="0" /></g><g
           id="g32"
           transform="translate(410.6203,164.308)"><path
             d="m 0,0 -10.419,0 -0.005,12.826 10.424,0 0,15.182 15.197,0 0,-15.182 13.029,0 0,-12.826 -13.029,0 0,-25.403 c 0,-2.99 0.614,-5.007 1.846,-6.067 1.232,-1.051 2.823,-1.581 4.778,-1.581 1.014,0 2.043,0.052 3.093,0.161 1.051,0.115 2.08,0.312 3.094,0.603 l 3.249,-10.908 c -2.1,-0.655 -5.225,-1.45 -7.211,-1.705 -1.996,-0.255 -3.894,-0.385 -5.698,-0.385 -6.229,0 -10.84,1.493 -13.846,4.477 C 1.503,-37.819 0,-32.796 0,-25.736 L 0,0 Z"
             style="fill:#231f20;fill-opacity:1;fill-rule:nonzero;stroke:none"
             id="path34"
             inkscape:connector-curvature="0" /></g><g
           id="g36"
           transform="translate(483.1224,145.1273)"><path
             d="m 0,0 -6.728,-0.328 c -3.187,-0.145 -5.76,-0.473 -7.71,-0.982 -1.955,-0.51 -3.457,-1.144 -4.508,-1.908 -1.045,-0.765 -1.757,-1.664 -2.116,-2.678 -0.364,-1.024 -0.541,-2.147 -0.541,-3.39 0,-1.892 0.65,-3.379 1.955,-4.471 1.3,-1.097 3.109,-1.643 5.428,-1.643 3.905,0 7.092,0.91 9.551,2.735 1.378,1.014 2.496,2.308 3.364,3.873 C -0.437,-7.227 0,-5.282 0,-2.948 L 0,0 Z m 0.328,-18.239 c -2.247,-2.552 -4.763,-4.627 -7.55,-6.228 -2.786,-1.602 -6.389,-2.402 -10.798,-2.402 -2.532,0 -4.939,0.327 -7.222,0.982 -2.277,0.656 -4.268,1.675 -5.969,3.058 -1.7,1.383 -3.062,3.15 -4.07,5.303 -1.014,2.142 -1.524,4.71 -1.524,7.694 0,3.936 0.868,7.139 2.61,9.614 1.731,2.474 4.014,4.403 6.837,5.791 2.823,1.383 5.99,2.366 9.499,2.948 3.509,0.583 7.071,0.947 10.689,1.092 l 7.279,0.328 0,2.844 c 0,3.494 -0.962,5.896 -2.88,7.206 -1.919,1.31 -4.175,1.965 -6.785,1.965 -6.005,0 -9.442,-2.293 -10.31,-6.878 l -13.897,1.31 c 1.014,5.968 3.618,10.284 7.814,12.94 4.196,2.657 9.842,3.988 16.939,3.988 4.341,0 8.033,-0.53 11.069,-1.586 3.041,-1.055 5.485,-2.563 7.331,-4.528 1.845,-1.971 3.182,-4.352 4.019,-7.159 0.831,-2.803 1.247,-5.948 1.247,-9.447 l 0,-36.046 -14.328,0 0,7.211 z"
             style="fill:#231f20;fill-opacity:1;fill-rule:nonzero;stroke:none"
             id="path38"
             inkscape:connector-curvature="0" /></g><path
           d="m 506.66,119.674 15.197,0 0,77.992 -15.197,0 0,-77.992 z"
           style="fill:#231f20;fill-opacity:1;fill-rule:nonzero;stroke:none"
           id="path40"
           inkscape:connector-curvature="0" /><g
           id="g42"
           transform="translate(82.9784,87.3712)"><path
             d="m 0,0 c -1.794,0 -3.249,1.737 -3.249,3.873 l 0,133.109 c 0,2.142 1.455,3.873 3.249,3.873 1.794,0 3.249,-1.731 3.249,-3.873 l 0,-133.109 C 3.249,1.737 1.794,0 0,0"
             style="fill:#17ad49;fill-opacity:1;fill-rule:nonzero;stroke:none"
             id="path44"
             inkscape:connector-curvature="0" /></g><g
           id="g46"
           transform="translate(95.9825,79.729)"><path
             d="m 0,0 c -1.794,0 -3.249,1.737 -3.249,3.879 l 0,148.383 c 0,2.142 1.455,3.879 3.249,3.879 1.794,0 3.249,-1.737 3.249,-3.879 l 0,-148.383 C 3.249,1.737 1.794,0 0,0"
             style="fill:#17ad49;fill-opacity:1;fill-rule:nonzero;stroke:none"
             id="path48"
             inkscape:connector-curvature="0" /></g><g
           id="g50"
           transform="translate(108.9871,87.3702)"><path
             d="m 0,0 c -1.794,0 -3.249,1.737 -3.249,3.879 l 0,133.103 c 0,2.142 1.455,3.873 3.249,3.873 1.794,0 3.249,-1.731 3.249,-3.873 l 0,-133.103 C 3.249,1.737 1.794,0 0,0"
             style="fill:#17ad49;fill-opacity:1;fill-rule:nonzero;stroke:none"
             id="path52"
             inkscape:connector-curvature="0" /></g><g
           id="g54"
           transform="translate(161.0015,87.3702)"><path
             d="m 0,0 c -1.794,0 -3.249,1.737 -3.249,3.879 l 0,133.103 c 0,2.142 1.455,3.873 3.249,3.873 1.794,0 3.249,-1.731 3.249,-3.873 l 0,-133.103 C 3.249,1.737 1.794,0 0,0"
             style="fill:#17ad49;fill-opacity:1;fill-rule:nonzero;stroke:none"
             id="path56"
             inkscape:connector-curvature="0" /></g><g
           id="g58"
           transform="translate(174.0051,79.729)"><path
             d="m 0,0 c -1.794,0 -3.249,1.737 -3.249,3.879 l 0,148.383 c 0,2.142 1.455,3.879 3.249,3.879 1.794,0 3.249,-1.737 3.249,-3.879 l 0,-148.383 C 3.249,1.737 1.794,0 0,0"
             style="fill:#17ad49;fill-opacity:1;fill-rule:nonzero;stroke:none"
             id="path60"
             inkscape:connector-curvature="0" /></g><g
           id="g62"
           transform="translate(187.0081,87.3712)"><path
             d="m 0,0 c -1.794,0 -3.249,1.737 -3.249,3.873 l 0,133.109 c 0,2.142 1.455,3.873 3.249,3.873 1.799,0 3.249,-1.731 3.249,-3.873 l 0,-133.109 C 3.249,1.737 1.799,0 0,0"
             style="fill:#17ad49;fill-opacity:1;fill-rule:nonzero;stroke:none"
             id="path64"
             inkscape:connector-curvature="0" /></g><g
           id="g66"
           transform="translate(121.9892,133.2173)"><path
             d="m 0,0 c -1.794,0 -3.249,1.737 -3.249,3.873 l 0,71.977 c 0,2.142 1.455,3.879 3.249,3.879 1.794,0 3.249,-1.737 3.249,-3.879 l 0,-71.977 C 3.249,1.737 1.794,0 0,0"
             style="fill:#17ad49;fill-opacity:1;fill-rule:nonzero;stroke:none"
             id="path68"
             inkscape:connector-curvature="0" /></g><g
           id="g70"
           transform="translate(134.9938,117.9355)"><path
             d="m 0,0 c -1.794,0 -3.249,1.731 -3.249,3.873 l 0,71.983 c 0,2.136 1.455,3.873 3.249,3.873 1.794,0 3.249,-1.737 3.249,-3.873 l 0,-71.983 C 3.249,1.731 1.794,0 0,0"
             style="fill:#17ad49;fill-opacity:1;fill-rule:nonzero;stroke:none"
             id="path72"
             inkscape:connector-curvature="0" /></g><g
           id="g74"
           transform="translate(147.9974,102.6531)"><path
             d="m 0,0 c -1.794,0 -3.249,1.737 -3.249,3.873 l 0,71.977 c 0,2.142 1.455,3.879 3.249,3.879 1.794,0 3.249,-1.737 3.249,-3.879 l 0,-71.977 C 3.249,1.737 1.794,0 0,0"
             style="fill:#17ad49;fill-opacity:1;fill-rule:nonzero;stroke:none"
             id="path76"
             inkscape:connector-curvature="0" /></g></g></g></g></svg>