<?xml version="1.0" encoding="UTF-8" standalone="no"?>
<!-- Created with Inkscape (http://www.inkscape.org/) -->

<svg
   xmlns:dc="http://purl.org/dc/elements/1.1/"
   xmlns:cc="http://creativecommons.org/ns#"
   xmlns:rdf="http://www.w3.org/1999/02/22-rdf-syntax-ns#"
   xmlns:svg="http://www.w3.org/2000/svg"
   xmlns="http://www.w3.org/2000/svg"
   xmlns:sodipodi="http://sodipodi.sourceforge.net/DTD/sodipodi-0.dtd"
   xmlns:inkscape="http://www.inkscape.org/namespaces/inkscape"
   id="svg2"
   version="1.1"
   inkscape:version="0.91 r13725"
   xml:space="preserve"
   width="1062.9875"
   height="354.32501"
   viewBox="0 0 1062.9875 354.32501"
   sodipodi:docname="Sofokus.svg"><metadata
     id="metadata8"><rdf:RDF><cc:Work
         rdf:about=""><dc:format>image/svg+xml</dc:format><dc:type
           rdf:resource="http://purl.org/dc/dcmitype/StillImage" /><dc:title></dc:title></cc:Work></rdf:RDF></metadata><defs
     id="defs6"><clipPath
       clipPathUnits="userSpaceOnUse"
       id="clipPath16"><path
         d="m 28.345,46.568 793.701,0 0,190.325 -793.701,0 0,-190.325 z"
         id="path18"
         inkscape:connector-curvature="0" /></clipPath></defs><sodipodi:namedview
     pagecolor="#ffffff"
     bordercolor="#666666"
     borderopacity="1"
     objecttolerance="10"
     gridtolerance="10"
     guidetolerance="10"
     inkscape:pageopacity="0"
     inkscape:pageshadow="2"
     inkscape:window-width="1920"
     inkscape:window-height="1017"
     id="namedview4"
     showgrid="false"
     inkscape:zoom="0.35089781"
     inkscape:cx="531.49377"
     inkscape:cy="177.16251"
     inkscape:window-x="-8"
     inkscape:window-y="-8"
     inkscape:window-maximized="1"
     inkscape:current-layer="g10" /><g
     id="g10"
     inkscape:groupmode="layer"
     inkscape:label="Sofokus-nega-RGB"
     transform="matrix(1.25,0,0,-1.25,0,354.325)"><g
       id="g12"
       inkscape:export-xdpi="41.613251"
       inkscape:export-ydpi="41.613251"><g
         id="g14"
         clip-path="url(#clipPath16)"><g
           id="g20"
           transform="translate(370.8827,122.8591)"><path
             d="m 0,0 0,37.742 c 0,17.37 -14.081,25.16 -31.451,25.16 l -12.582,0 c -17.37,0 -31.451,-7.79 -31.451,-25.16 l 0,-37.742 c 0,-17.37 14.081,-25.16 31.451,-25.16 l 12.582,0 C -14.081,-25.16 0,-17.37 0,0 m -12.582,0 c 0,-10.423 -8.446,-12.582 -18.869,-12.582 l -12.582,0 c -10.419,0 -18.869,2.159 -18.869,12.582 l 0,37.742 c 0,10.419 8.45,12.578 18.869,12.578 l 12.582,0 c 10.423,0 18.869,-2.155 18.869,-12.578 l 0,-37.742 z m -83.184,0 -0.008,0 0.008,0 c 0,17.37 -14.085,25.16 -31.451,25.16 l 0,-0.004 0,0.004 -12.582,0 c -10.423,0 -18.873,2.159 -18.873,12.582 l -0.004,0 0.008,0 c 0,10.419 8.446,12.578 18.869,12.578 l 12.582,0 0,0.004 0,-0.004 c 9.533,0 17.397,-1.825 18.667,-10.116 l 0.019,0.054 c 0.148,-1.374 1.305,-2.516 2.695,-2.516 l 7.557,0 c 1.36,0 2.439,1.099 2.404,2.435 -1.266,15.657 -14.811,22.725 -31.342,22.725 l 0,-0.004 0,0.004 -12.582,0 c -17.37,0 -31.451,-7.79 -31.451,-25.16 l 0.008,0 -0.008,0 c 0,-17.37 14.081,-25.16 31.451,-25.16 l 12.582,0 0,0.004 0,-0.004 c 10.419,0 18.869,-2.159 18.869,-12.582 l 0.008,0 -0.008,0 c 0,-10.423 -8.45,-12.582 -18.869,-12.582 l -12.582,0 c -9.533,0.004 -17.397,1.829 -18.671,10.12 l -0.015,-0.054 c -0.148,1.374 -1.309,2.512 -2.695,2.516 l -7.557,0 c -1.359,0 -2.439,-1.099 -2.408,-2.435 1.27,-15.661 14.811,-22.725 31.346,-22.725 l 12.582,0 c 17.366,0 31.451,7.79 31.451,25.16 m -126.891,22.578 21.009,21.008 -21.009,21.013 -21.013,-21.013 21.013,-21.008 z m -24.717,24.717 21.008,21.012 -21.008,21.009 -21.013,-21.013 21.013,-21.008 z m -24.721,24.717 21.012,21.009 -21.012,21.012 -21.009,-21.012 21.009,-21.009 z m -3.705,-3.709 -21.013,21.013 -21.008,-21.013 21.008,-21.008 21.013,21.008 z m -24.717,-24.717 -21.013,21.013 -21.009,-21.013 21.009,-21.008 21.013,21.008 z m -21.013,-28.422 -21.009,-21.012 21.009,-21.009 21.013,21.009 -21.013,21.012 z m 24.717,-24.717 -21.008,-21.012 21.008,-21.009 21.013,21.009 -21.013,21.012 z m 24.722,-24.717 -21.013,-21.013 21.009,-21.008 21.012,21.008 -21.008,21.013 z m 3.704,3.705 21.009,-21.009 21.012,21.009 -21.008,21.012 -21.013,-21.012 z m 24.717,24.717 21.009,-21.009 21.013,21.013 -21.009,21.008 -21.013,-21.012 z"
             style="fill:#00b4ec;fill-opacity:1;fill-rule:nonzero;stroke:none"
             id="path22"
             inkscape:connector-curvature="0" /></g><g
           id="g24"
           transform="translate(790.5945,148.0194)"><path
             d="M 0,0 0,-0.004 0,0 -12.582,0 c -10.419,0 -18.869,2.159 -18.869,12.582 l -0.008,0 0.008,0 c 0,10.419 8.45,12.578 18.869,12.578 L 0,25.16 0,25.164 0,25.16 c 9.533,0 17.397,-1.825 18.671,-10.116 l 0.015,0.054 c 0.148,-1.374 1.309,-2.516 2.695,-2.516 l 7.557,0 c 1.359,0 2.439,1.095 2.408,2.435 C 30.076,30.674 16.535,37.742 0,37.742 l 0,-0.004 0,0.004 -12.582,0 c -17.37,0 -31.451,-7.79 -31.451,-25.16 l 0.008,0 -0.008,0 c 0,-17.37 14.081,-25.164 31.451,-25.164 l 12.582,0 0,0.004 0,-0.004 c 10.423,0 18.869,-2.155 18.869,-12.578 l 0.008,0 -0.008,0 C 18.869,-35.583 10.423,-37.742 0,-37.742 l 0,-0.004 0,0.004 -12.582,0 c -9.533,0 -17.397,1.829 -18.667,10.116 l -0.019,-0.05 c -0.148,1.374 -1.305,2.512 -2.695,2.516 l -7.557,0 c -1.36,-0.004 -2.439,-1.099 -2.404,-2.435 1.266,-15.661 14.811,-22.725 31.342,-22.725 l 12.582,0 c 17.37,0 31.451,7.79 31.451,25.16 l -0.008,0 0.008,0 C 31.451,-7.79 17.37,0 0,0 m -64.315,-25.16 0,59.127 c 0,1.39 -1.126,2.517 -2.517,2.517 l -7.549,0 c -1.39,0 -2.516,-1.127 -2.516,-2.517 l 0,-59.127 c 0,-10.423 -8.45,-12.582 -18.869,-12.582 l -12.582,0 c -10.423,0 -18.869,2.159 -18.869,12.582 l 0,59.127 c 0,1.39 -1.126,2.517 -2.516,2.517 l -7.55,0 c -1.39,0 -2.516,-1.127 -2.516,-2.517 l 0,-59.127 c 0,-17.37 14.081,-25.16 31.451,-25.16 l 12.582,0 c 17.37,0 31.451,7.79 31.451,25.16 m -90.932,-21.385 -17.789,30.814 -0.012,-0.004 c -2.555,4.419 -6.163,8.147 -10.465,10.873 3.3,2.878 5.999,6.435 7.875,10.45 l 0.012,-0.004 13.234,28.383 c 0.648,1.39 0.047,2.517 -1.344,2.517 l -8.846,0 c -1.39,0 -3.044,-1.127 -3.689,-2.517 L -187.028,10.904 C -190.033,4.47 -196.546,0 -204.114,0 l -12.582,0 0,33.967 c 0,1.39 -1.126,2.517 -2.517,2.517 l -7.549,0 c -1.39,0 -2.516,-1.127 -2.516,-2.517 l 0,-80.512 c 0,-1.391 1.126,-2.517 2.516,-2.517 l 7.553,0 c 1.387,0 2.513,1.126 2.513,2.517 l 0,33.963 16.438,0 c 6.982,0 13.063,-3.802 16.325,-9.44 l 14.159,-24.523 c 0.804,-1.391 2.578,-2.517 3.969,-2.517 l 9.494,0 c 1.39,0 1.864,1.126 1.064,2.517 m -96.205,21.385 0,37.742 c 0,17.366 -14.081,25.16 -31.447,25.16 l -12.582,0 c -17.37,0 -31.451,-7.794 -31.451,-25.16 l 0,-37.742 c 0,-17.37 14.081,-25.16 31.451,-25.16 l 12.582,0 c 17.366,0 31.447,7.79 31.447,25.16 m -12.578,0 c 0,-10.423 -8.45,-12.582 -18.869,-12.582 l -12.582,0 c -10.422,0 -18.869,2.159 -18.869,12.582 l 0,37.742 c 0,10.419 8.447,12.578 18.869,12.578 l 12.582,0 c 10.419,0 18.869,-2.159 18.869,-12.578 l 0,-37.742 z m -73.018,62.902 -28.41,0 c -17.37,0 -31.451,-7.794 -31.451,-25.16 l 0,-59.131 c 0,-1.387 1.126,-2.513 2.513,-2.513 l 7.553,0 c 1.386,0 2.512,1.126 2.512,2.517 l 0,33.963 22.648,0 c 1.386,0 2.516,1.126 2.516,2.516 l 0,7.55 c 0,1.39 -1.13,2.516 -2.516,2.516 l -22.648,0 0,12.582 c 0,10.419 8.45,12.578 18.873,12.578 l 19.289,0 c 1.475,5.475 4.698,9.638 9.121,12.582 m -330.038,-65.042 21.009,21.009 -21.009,21.009 -21.012,-21.009 21.012,-21.009 z m -24.721,24.718 21.013,21.008 -21.013,21.009 -21.008,-21.009 21.008,-21.008 z m -3.704,-3.709 -21.013,21.009 -21.009,-21.009 21.009,-21.009 21.013,21.009 z m 3.704,-3.709 -21.008,-21.008 21.008,-21.009 21.013,21.009 -21.013,21.008 z"
             style="fill:#ffffff;fill-opacity:1;fill-rule:nonzero;stroke:none"
             id="path26"
             inkscape:connector-curvature="0" /></g></g></g></g></svg>