<?xml version="1.0" encoding="UTF-8" standalone="no"?>
<!-- Created with Inkscape (http://www.inkscape.org/) -->

<svg
   xmlns:dc="http://purl.org/dc/elements/1.1/"
   xmlns:cc="http://creativecommons.org/ns#"
   xmlns:rdf="http://www.w3.org/1999/02/22-rdf-syntax-ns#"
   xmlns:svg="http://www.w3.org/2000/svg"
   xmlns="http://www.w3.org/2000/svg"
   xmlns:sodipodi="http://sodipodi.sourceforge.net/DTD/sodipodi-0.dtd"
   xmlns:inkscape="http://www.inkscape.org/namespaces/inkscape"
   id="svg2"
   version="1.1"
   inkscape:version="0.91 r13725"
   xml:space="preserve"
   width="453.54376"
   height="60.3815"
   viewBox="0 0 453.54376 60.3815"
   sodipodi:docname="TEK.svg"><metadata
     id="metadata8"><rdf:RDF><cc:Work
         rdf:about=""><dc:format>image/svg+xml</dc:format><dc:type
           rdf:resource="http://purl.org/dc/dcmitype/StillImage" /><dc:title></dc:title></cc:Work></rdf:RDF></metadata><defs
     id="defs6"><clipPath
       clipPathUnits="userSpaceOnUse"
       id="clipPath90"><path
         d="m 0,48.305 362.835,0 L 362.835,0 0,0 0,48.305 Z"
         id="path92"
         inkscape:connector-curvature="0" /></clipPath></defs><sodipodi:namedview
     pagecolor="#ffffff"
     bordercolor="#666666"
     borderopacity="1"
     objecttolerance="10"
     gridtolerance="10"
     guidetolerance="10"
     inkscape:pageopacity="0"
     inkscape:pageshadow="2"
     inkscape:window-width="690"
     inkscape:window-height="480"
     id="namedview4"
     showgrid="false"
     inkscape:zoom="1.0340788"
     inkscape:cx="226.77188"
     inkscape:cy="30.19075"
     inkscape:window-x="0"
     inkscape:window-y="0"
     inkscape:window-maximized="0"
     inkscape:current-layer="g10" /><g
     id="g10"
     inkscape:groupmode="layer"
     inkscape:label="TekniikanAkateemiset120v_Logo (1)"
     transform="matrix(1.25,0,0,-1.25,0,60.3815)"><g
       id="g12"
       transform="translate(119.0997,48.3048)"><path
         d="m 0,0 -24.153,-24.152 24.152,-24.153 13.42,0 -24.153,24.153 L 13.42,0 0,0 Z"
         style="fill:#00aecc;fill-opacity:1;fill-rule:nonzero;stroke:none"
         id="path14"
         inkscape:connector-curvature="0" /></g><path
       d="m 49.735,19.182 35.267,0 0,9.943 -35.267,0 0,-9.943 z"
       style="fill:#b4b3b4;fill-opacity:1;fill-rule:nonzero;stroke:none"
       id="path16"
       inkscape:connector-curvature="0" /><path
       d="m 0,38.362 85,0 0,9.943 -85,0 0,-9.943 z"
       style="fill:#b4b3b4;fill-opacity:1;fill-rule:nonzero;stroke:none"
       id="path18"
       inkscape:connector-curvature="0" /><path
       d="m 49.736,0 35.266,0 0,9.946 -35.266,0 0,-9.946 z"
       style="fill:#b4b3b4;fill-opacity:1;fill-rule:nonzero;stroke:none"
       id="path20"
       inkscape:connector-curvature="0" /><path
       d="m 19.887,0 9.947,0 0,29.126 -9.947,0 0,-29.126 z"
       style="fill:#b4b3b4;fill-opacity:1;fill-rule:nonzero;stroke:none"
       id="path22"
       inkscape:connector-curvature="0" /><g
       id="g24"
       transform="translate(159.3125,41.4775)"><path
         d="m 0,0 0,-13.267 -1.566,0 0,13.267 -4.244,0 0,1.4 10.054,0 0,-1.4 L 0,0 Z"
         style="fill:#a3a1a1;fill-opacity:1;fill-rule:nonzero;stroke:none"
         id="path26"
         inkscape:connector-curvature="0" /></g><g
       id="g28"
       transform="translate(166.9385,28.2109)"><path
         d="m 0,0 0,14.667 9.105,0 0,-1.4 -7.54,0 0,-5.171 6.428,0 0,-1.401 -6.428,0 0,-5.295 7.54,0 0,-1.4 L 0,0 Z"
         style="fill:#a3a1a1;fill-opacity:1;fill-rule:nonzero;stroke:none"
         id="path30"
         inkscape:connector-curvature="0" /></g><g
       id="g32"
       transform="translate(188.8057,28.2109)"><path
         d="M 0,0 -4.47,7.808 -7.561,4.1 l 0,-4.1 -1.565,0 0,14.667 1.565,0 0,-8.425 6.839,8.425 1.916,0 L -3.42,9.003 1.854,0 0,0 Z"
         style="fill:#a3a1a1;fill-opacity:1;fill-rule:nonzero;stroke:none"
         id="path34"
         inkscape:connector-curvature="0" /></g><g
       id="g36"
       transform="translate(203.2412,28.2109)"><path
         d="m 0,0 -7.786,11.763 0,-11.763 -1.567,0 0,14.667 1.485,0 7.786,-11.722 0,11.722 1.566,0 L 1.484,0 0,0 Z"
         style="fill:#a3a1a1;fill-opacity:1;fill-rule:nonzero;stroke:none"
         id="path38"
         inkscape:connector-curvature="0" /></g><path
       d="m 209.143,42.878 1.566,0 0,-14.667 -1.566,0 0,14.667 z"
       style="fill:#a3a1a1;fill-opacity:1;fill-rule:nonzero;stroke:none"
       id="path40"
       inkscape:connector-curvature="0" /><path
       d="m 215.127,42.878 1.566,0 0,-14.667 -1.566,0 0,14.667 z"
       style="fill:#a3a1a1;fill-opacity:1;fill-rule:nonzero;stroke:none"
       id="path42"
       inkscape:connector-curvature="0" /><g
       id="g44"
       transform="translate(230.2373,28.2109)"><path
         d="m 0,0 -4.471,7.808 -3.09,-3.708 0,-4.1 -1.566,0 0,14.667 1.566,0 0,-8.425 6.839,8.425 1.916,0 L -3.42,9.003 1.854,0 0,0 Z"
         style="fill:#a3a1a1;fill-opacity:1;fill-rule:nonzero;stroke:none"
         id="path46"
         inkscape:connector-curvature="0" /></g><g
       id="g48"
       transform="translate(240.4727,40.6328)"><path
         d="m 0,0 -2.761,-7.746 5.481,0 L 0,0 Z m 4.347,-12.422 -1.175,3.317 -6.406,0 -1.174,-3.317 -1.668,0 5.397,14.667 1.318,0 5.377,-14.667 -1.669,0 z"
         style="fill:#a3a1a1;fill-opacity:1;fill-rule:nonzero;stroke:none"
         id="path50"
         inkscape:connector-curvature="0" /></g><g
       id="g52"
       transform="translate(259.0498,28.2109)"><path
         d="m 0,0 -7.786,11.763 0,-11.763 -1.567,0 0,14.667 1.484,0 7.786,-11.722 0,11.722 1.566,0 L 1.483,0 0,0 Z"
         style="fill:#a3a1a1;fill-opacity:1;fill-rule:nonzero;stroke:none"
         id="path54"
         inkscape:connector-curvature="0" /></g><g
       id="g56"
       transform="translate(159.209,17.9727)"><path
         d="m 0,0 -2.76,-7.745 5.48,0 L 0,0 Z m 4.348,-12.422 -1.175,3.318 -6.406,0 -1.174,-3.318 -1.669,0 5.397,14.668 1.318,0 5.378,-14.668 -1.669,0 z"
         style="fill:#a3a1a1;fill-opacity:1;fill-rule:nonzero;stroke:none"
         id="path58"
         inkscape:connector-curvature="0" /></g><g
       id="g60"
       transform="translate(177.5596,5.5508)"><path
         d="M 0,0 -4.47,7.808 -7.56,4.1 l 0,-4.1 -1.566,0 0,14.668 1.566,0 0,-8.426 6.839,8.426 1.916,0 L -3.42,9.003 1.854,0 0,0 Z"
         style="fill:#a3a1a1;fill-opacity:1;fill-rule:nonzero;stroke:none"
         id="path62"
         inkscape:connector-curvature="0" /></g><g
       id="g64"
       transform="translate(187.7959,17.9727)"><path
         d="m 0,0 -2.761,-7.745 5.481,0 L 0,0 Z m 4.347,-12.422 -1.175,3.318 -6.406,0 -1.174,-3.318 -1.669,0 5.397,14.668 1.319,0 5.377,-14.668 -1.669,0 z"
         style="fill:#a3a1a1;fill-opacity:1;fill-rule:nonzero;stroke:none"
         id="path66"
         inkscape:connector-curvature="0" /></g><g
       id="g68"
       transform="translate(199.9375,18.8174)"><path
         d="m 0,0 0,-13.267 -1.566,0 0,13.267 -4.244,0 0,1.401 10.053,0 L 4.243,0 0,0 Z"
         style="fill:#a3a1a1;fill-opacity:1;fill-rule:nonzero;stroke:none"
         id="path70"
         inkscape:connector-curvature="0" /></g><g
       id="g72"
       transform="translate(207.5625,5.5508)"><path
         d="m 0,0 0,14.668 9.106,0 0,-1.401 -7.54,0 0,-5.171 6.428,0 0,-1.401 -6.428,0 0,-5.295 7.54,0 0,-1.4 L 0,0 Z"
         style="fill:#a3a1a1;fill-opacity:1;fill-rule:nonzero;stroke:none"
         id="path74"
         inkscape:connector-curvature="0" /></g><g
       id="g76"
       transform="translate(220.3037,5.5508)"><path
         d="m 0,0 0,14.668 9.106,0 0,-1.401 -7.54,0 0,-5.171 6.428,0 0,-1.401 -6.428,0 0,-5.295 7.54,0 0,-1.4 L 0,0 Z"
         style="fill:#a3a1a1;fill-opacity:1;fill-rule:nonzero;stroke:none"
         id="path78"
         inkscape:connector-curvature="0" /></g><g
       id="g80"
       transform="translate(244.0459,5.5508)"><path
         d="m 0,0 0,11.145 -4.017,-8.837 -1.338,0 -4.08,8.837 0,-11.145 -1.566,0 0,14.668 1.566,0 4.78,-10.403 4.655,10.403 1.565,0 L 1.565,0 0,0 Z"
         style="fill:#a3a1a1;fill-opacity:1;fill-rule:nonzero;stroke:none"
         id="path82"
         inkscape:connector-curvature="0" /></g><path
       d="m 250.04,20.219 1.566,0 0,-14.668 -1.566,0 0,14.668 z"
       style="fill:#a3a1a1;fill-opacity:1;fill-rule:nonzero;stroke:none"
       id="path84"
       inkscape:connector-curvature="0" /><g
       id="g86"><g
         id="g88"
         clip-path="url(#clipPath90)"><g
           id="g94"
           transform="translate(265.1934,9.5889)"><path
             d="m 0,0 c 0,-0.646 -0.119,-1.226 -0.36,-1.741 -0.241,-0.515 -0.58,-0.951 -1.02,-1.308 -0.439,-0.357 -0.972,-0.632 -1.597,-0.824 -0.624,-0.192 -1.321,-0.289 -2.09,-0.289 -0.549,0 -1.054,0.039 -1.514,0.114 -0.461,0.075 -0.894,0.189 -1.298,0.34 -0.405,0.151 -0.786,0.35 -1.143,0.597 -0.358,0.248 -0.707,0.543 -1.05,0.885 l 1.05,1.051 c 0.604,-0.603 1.214,-1.019 1.834,-1.246 0.617,-0.226 1.338,-0.34 2.162,-0.34 1.086,0 1.936,0.238 2.554,0.711 0.618,0.474 0.927,1.144 0.927,2.008 0,0.797 -0.24,1.408 -0.72,1.834 C -2.376,1.888 -2.489,1.974 -2.605,2.05 -2.723,2.124 -2.853,2.189 -2.996,2.245 -3.142,2.3 -3.31,2.349 -3.501,2.39 -3.694,2.431 -3.921,2.472 -4.182,2.513 l -1.71,0.247 c -1.153,0.178 -2.046,0.55 -2.676,1.113 -0.756,0.672 -1.134,1.593 -1.134,2.76 0,0.618 0.109,1.18 0.33,1.689 0.219,0.508 0.531,0.944 0.937,1.308 0.405,0.364 0.896,0.641 1.472,0.835 0.578,0.191 1.23,0.288 1.958,0.288 0.934,0 1.737,-0.131 2.41,-0.392 0.673,-0.26 1.324,-0.666 1.956,-1.215 L -1.647,8.137 c -0.44,0.425 -0.928,0.744 -1.463,0.958 -0.536,0.213 -1.188,0.319 -1.957,0.319 -0.99,0 -1.754,-0.251 -2.297,-0.752 -0.543,-0.501 -0.814,-1.164 -0.814,-1.988 0,-0.755 0.22,-1.325 0.659,-1.709 0.234,-0.194 0.515,-0.351 0.845,-0.475 0.33,-0.123 0.687,-0.219 1.071,-0.288 l 1.71,-0.267 C -3.221,3.824 -2.691,3.697 -2.307,3.554 -1.922,3.409 -1.565,3.186 -1.235,2.884 -0.838,2.54 -0.532,2.128 -0.318,1.647 -0.106,1.167 0,0.618 0,0"
             style="fill:#a3a1a1;fill-opacity:1;fill-rule:nonzero;stroke:none"
             id="path96"
             inkscape:connector-curvature="0" /></g><g
           id="g98"
           transform="translate(268.8398,5.5508)"><path
             d="m 0,0 0,14.668 9.105,0 0,-1.401 -7.539,0 0,-5.171 6.427,0 0,-1.401 -6.427,0 0,-5.295 7.539,0 0,-1.4 L 0,0 Z"
             style="fill:#a3a1a1;fill-opacity:1;fill-rule:nonzero;stroke:none"
             id="path100"
             inkscape:connector-curvature="0" /></g><g
           id="g102"
           transform="translate(286.6484,18.8174)"><path
             d="m 0,0 0,-13.267 -1.566,0 0,13.267 -4.244,0 0,1.401 10.054,0 L 4.244,0 0,0 Z"
             style="fill:#a3a1a1;fill-opacity:1;fill-rule:nonzero;stroke:none"
             id="path104"
             inkscape:connector-curvature="0" /></g><g
           id="g106"
           transform="translate(301.6699,43.8086)"><path
             d="M 0,0 C 0,0.515 0.427,0.942 0.942,0.942 1.47,0.942 1.884,0.515 1.884,0 1.884,-0.515 1.47,-0.942 0.942,-0.942 0.427,-0.942 0,-0.515 0,0 m 0,-3.63 c 0,0.514 0.427,0.929 0.942,0.929 0.528,0 0.942,-0.415 0.942,-0.929 0,-0.528 -0.414,-0.942 -0.942,-0.942 C 0.427,-4.572 0,-4.158 0,-3.63 m 0,-3.643 c 0,0.527 0.427,0.942 0.942,0.942 0.528,0 0.942,-0.415 0.942,-0.942 0,-0.515 -0.414,-0.942 -0.942,-0.942 C 0.427,-8.215 0,-7.788 0,-7.273 m 0,-3.63 c 0,0.515 0.427,0.942 0.942,0.942 0.528,0 0.942,-0.427 0.942,-0.942 0,-0.528 -0.414,-0.943 -0.942,-0.943 -0.515,0 -0.942,0.415 -0.942,0.943 m 0,-3.643 c 0,0.527 0.427,0.942 0.942,0.942 0.528,0 0.942,-0.415 0.942,-0.942 0,-0.516 -0.414,-0.942 -0.942,-0.942 -0.515,0 -0.942,0.426 -0.942,0.942 m 0,-3.63 c 0,0.515 0.427,0.942 0.942,0.942 0.528,0 0.942,-0.427 0.942,-0.942 0,-0.516 -0.414,-0.943 -0.942,-0.943 -0.515,0 -0.942,0.427 -0.942,0.943 m 0,-3.644 c 0,0.528 0.427,0.955 0.942,0.955 0.528,0 0.942,-0.427 0.942,-0.955 0,-0.515 -0.414,-0.93 -0.942,-0.93 -0.515,0 -0.942,0.415 -0.942,0.93 m 0,-3.63 c 0,0.528 0.427,0.943 0.942,0.943 0.528,0 0.942,-0.415 0.942,-0.943 0,-0.515 -0.414,-0.942 -0.942,-0.942 -0.515,0 -0.942,0.427 -0.942,0.942 m 0,-3.631 c 0,0.516 0.427,0.942 0.942,0.942 0.528,0 0.942,-0.426 0.942,-0.942 0,-0.527 -0.414,-0.942 -0.942,-0.942 -0.515,0 -0.942,0.415 -0.942,0.942 m 0,-3.642 c 0,0.528 0.427,0.942 0.942,0.942 0.528,0 0.942,-0.414 0.942,-0.942 0,-0.515 -0.414,-0.942 -0.942,-0.942 -0.515,0 -0.942,0.427 -0.942,0.942 m 0,-3.631 c 0,0.516 0.427,0.942 0.942,0.942 0.528,0 0.942,-0.426 0.942,-0.942 0,-0.527 -0.414,-0.942 -0.942,-0.942 -0.515,0 -0.942,0.415 -0.942,0.942 m 0,-3.629 c 0,0.515 0.427,0.929 0.942,0.929 0.528,0 0.942,-0.414 0.942,-0.929 0,-0.528 -0.414,-0.955 -0.942,-0.955 -0.515,0 -0.942,0.427 -0.942,0.955"
             style="fill:#b4b3b4;fill-opacity:1;fill-rule:nonzero;stroke:none"
             id="path108"
             inkscape:connector-curvature="0" /></g><g
           id="g110"
           transform="translate(360.4521,4.6934)"><path
             d="M 0,0 0,5.166 C 0,7.013 -1.115,7.937 -3.344,7.937 -3.998,7.937 -4.535,7.856 -4.956,7.695 -5.378,7.536 -5.779,7.244 -6.16,6.822 l 1.235,-1.221 c 0.209,0.243 0.426,0.414 0.647,0.522 0.221,0.104 0.506,0.158 0.858,0.158 0.522,0 0.897,-0.098 1.122,-0.295 0.225,-0.196 0.34,-0.51 0.34,-0.942 l 0,-0.391 -1.824,0 c -0.461,0 -0.863,-0.06 -1.204,-0.18 C -5.327,4.351 -5.608,4.189 -5.829,3.983 -6.05,3.777 -6.216,3.536 -6.325,3.261 -6.438,2.985 -6.493,2.69 -6.493,2.38 c 0,-0.352 0.055,-0.677 0.168,-0.979 0.109,-0.302 0.27,-0.563 0.481,-0.784 0.461,-0.461 1.128,-0.693 2.003,-0.693 0.451,0 0.82,0.06 1.106,0.18 0.287,0.122 0.56,0.312 0.82,0.573 L -1.915,0 0,0 Z M -1.958,2.892 C -1.958,2.64 -1.981,2.437 -2.026,2.281 -2.073,2.125 -2.149,1.997 -2.26,1.896 -2.432,1.736 -2.606,1.634 -2.787,1.587 -2.969,1.544 -3.18,1.52 -3.42,1.52 c -0.411,0 -0.713,0.081 -0.903,0.243 -0.19,0.159 -0.287,0.375 -0.287,0.647 0,0.602 0.385,0.903 1.161,0.903 l 1.491,0 0,-0.421 z m 1.38,16.323 C -0.193,20.082 0,21.074 0,22.194 l 0,3.015 -4.28,0 0,-2.983 c 0,-0.988 -0.257,-1.761 -0.772,-2.319 -0.516,-0.559 -1.202,-0.84 -2.058,-0.84 -0.855,0 -1.547,0.281 -2.073,0.84 -0.526,0.558 -0.789,1.331 -0.789,2.319 l 0,2.983 -4.277,0 0,-3.015 c 0,-1.12 0.189,-2.112 0.574,-2.979 0.384,-0.866 0.904,-1.594 1.564,-2.188 0.657,-0.593 1.417,-1.044 2.269,-1.35 0.857,-0.307 1.768,-0.461 2.732,-0.461 0.943,0 1.847,0.154 2.716,0.461 0.866,0.306 1.624,0.757 2.269,1.35 0.648,0.594 1.164,1.322 1.547,2.188 m -3.702,9.835 4.28,0 0,3.016 c 0,1.12 -0.193,2.112 -0.578,2.978 -0.383,0.867 -0.899,1.597 -1.547,2.188 -0.645,0.594 -1.403,1.043 -2.269,1.351 -0.869,0.307 -1.773,0.461 -2.716,0.461 -0.964,0 -1.875,-0.154 -2.732,-0.461 -0.852,-0.308 -1.612,-0.757 -2.269,-1.351 -0.66,-0.591 -1.18,-1.321 -1.564,-2.188 -0.385,-0.866 -0.574,-1.858 -0.574,-2.978 l 0,-3.016 4.277,0 0,2.951 c 0,0.988 0.263,1.766 0.789,2.336 0.526,0.57 1.218,0.856 2.073,0.856 0.856,0 1.542,-0.286 2.058,-0.856 0.515,-0.57 0.772,-1.348 0.772,-2.336 l 0,-2.951 z M -15.611,0 l 1.07,0 0,1.656 -0.708,0 c -0.451,0 -0.677,0.236 -0.677,0.708 l 0,3.766 1.385,0 0,1.491 -1.385,0 0,2.319 -1.96,0 0,-2.319 -0.827,0 0,-1.491 0.827,0 0,-3.886 c 0,-0.281 0.043,-0.556 0.128,-0.821 0.086,-0.267 0.222,-0.505 0.407,-0.716 0.187,-0.21 0.421,-0.382 0.708,-0.512 C -16.355,0.065 -16.014,0 -15.611,0 m -15.904,15.414 14.249,0 0,3.78 -14.249,0 0,-3.78 z M -17.431,30.7 c 0.113,0.45 0.165,0.96 0.165,1.531 0,1.054 -0.177,2.001 -0.525,2.847 -0.352,0.844 -0.84,1.558 -1.466,2.139 -0.624,0.581 -1.379,1.031 -2.255,1.349 -0.877,0.318 -1.831,0.478 -2.862,0.478 -1.009,0 -1.947,-0.154 -2.814,-0.461 -0.867,-0.308 -1.625,-0.757 -2.271,-1.351 -0.646,-0.591 -1.152,-1.31 -1.514,-2.154 -0.362,-0.846 -0.542,-1.806 -0.542,-2.879 l 4.278,0 c 0,0.571 0.083,1.047 0.247,1.43 0.165,0.384 0.383,0.692 0.658,0.922 0.274,0.231 0.581,0.395 0.922,0.493 0.339,0.1 0.684,0.149 1.036,0.149 0.922,0 1.624,-0.269 2.107,-0.807 0.482,-0.537 0.724,-1.245 0.724,-2.122 0,-0.549 -0.094,-1.031 -0.28,-1.448 -0.188,-0.417 -0.499,-0.878 -0.939,-1.382 l -5.509,-6.4 5.202,0 3.302,3.833 c 0.395,0.46 0.752,0.893 1.071,1.3 0.316,0.406 0.579,0.817 0.788,1.234 0.208,0.416 0.369,0.849 0.477,1.299 m -14.167,-22.854 0,-4.745 c 0,-0.269 -0.039,-0.496 -0.118,-0.677 -0.08,-0.18 -0.184,-0.326 -0.309,-0.437 -0.126,-0.11 -0.267,-0.191 -0.422,-0.241 -0.155,-0.051 -0.308,-0.075 -0.459,-0.075 -0.151,0 -0.304,0.024 -0.459,0.075 -0.156,0.05 -0.297,0.131 -0.422,0.241 -0.128,0.111 -0.227,0.257 -0.302,0.437 -0.076,0.181 -0.111,0.408 -0.111,0.677 l 0,4.745 -1.958,0 0,-5.014 c 0,-0.434 0.052,-0.832 0.157,-1.198 0.105,-0.366 0.318,-0.711 0.639,-1.033 0.22,-0.219 0.488,-0.39 0.799,-0.511 0.31,-0.12 0.662,-0.181 1.054,-0.181 0.362,0 0.712,0.068 1.054,0.204 0.341,0.134 0.642,0.339 0.904,0.611 l 0,-0.724 1.912,0 0,7.846 -1.959,0 z m -9.169,7.568 4.277,0 0,15.021 -4.277,0 0,-15.021 z m -4.772,18.863 9.05,0 0,4.553 -9.05,0 0,-4.553 z m 2.24,-26.431 -2.062,0 2.89,-7.846 1.537,0 2.876,7.846 -2.061,0 -1.582,-4.849 -1.598,4.849 z m 16.271,-2.147 c -0.118,-0.466 -0.179,-1.056 -0.179,-1.77 0,-0.711 0.061,-1.304 0.179,-1.776 0.122,-0.472 0.357,-0.898 0.71,-1.28 0.251,-0.262 0.571,-0.488 0.964,-0.678 0.391,-0.19 0.877,-0.286 1.459,-0.286 0.582,0 1.073,0.096 1.47,0.286 0.396,0.19 0.72,0.416 0.97,0.678 0.362,0.371 0.601,0.795 0.715,1.273 0.117,0.477 0.175,1.072 0.175,1.783 0,0.714 -0.061,1.304 -0.182,1.77 -0.119,0.467 -0.357,0.892 -0.708,1.274 -0.25,0.261 -0.574,0.488 -0.97,0.677 -0.397,0.191 -0.888,0.287 -1.47,0.287 -0.582,0 -1.068,-0.096 -1.459,-0.287 -0.393,-0.189 -0.713,-0.416 -0.964,-0.677 -0.353,-0.382 -0.588,-0.807 -0.71,-1.274 m 1.779,-1.77 c 0,0.404 0.023,0.769 0.073,1.101 0.052,0.332 0.177,0.597 0.377,0.798 0.232,0.231 0.533,0.346 0.904,0.346 0.381,0 0.688,-0.115 0.919,-0.346 0.202,-0.201 0.327,-0.466 0.376,-0.798 0.051,-0.332 0.077,-0.697 0.077,-1.101 0,-0.41 -0.026,-0.781 -0.077,-1.114 -0.049,-0.331 -0.174,-0.596 -0.376,-0.797 -0.231,-0.232 -0.538,-0.347 -0.919,-0.347 -0.371,0 -0.672,0.115 -0.904,0.347 -0.2,0.201 -0.325,0.466 -0.377,0.797 -0.05,0.333 -0.073,0.704 -0.073,1.114 m 13.455,3.692 -0.827,0 0,-1.491 0.827,0 0,-3.886 c 0,-0.281 0.043,-0.556 0.128,-0.821 0.085,-0.267 0.221,-0.505 0.408,-0.716 0.185,-0.21 0.421,-0.382 0.706,-0.512 C -10.265,0.065 -9.92,0 -9.518,0 l 1.067,0 0,1.656 -0.706,0 c -0.451,0 -0.681,0.236 -0.681,0.708 l 0,3.766 1.387,0 0,1.491 -1.387,0 0,2.319 -1.956,0 0,-2.319 z"
             style="fill:#b4b3b4;fill-opacity:1;fill-rule:nonzero;stroke:none"
             id="path112"
             inkscape:connector-curvature="0" /></g><g
           id="g114"
           transform="translate(301.6699,47.3633)"><path
             d="M 0,0 C 0,0.514 0.427,0.942 0.942,0.942 1.47,0.942 1.884,0.514 1.884,0 1.884,-0.516 1.47,-0.942 0.942,-0.942 0.427,-0.942 0,-0.516 0,0"
             style="fill:#b4b3b4;fill-opacity:1;fill-rule:nonzero;stroke:none"
             id="path116"
             inkscape:connector-curvature="0" /></g><g
           id="g118"
           transform="translate(301.6699,0.957)"><path
             d="M 0,0 C 0,0.515 0.427,0.93 0.942,0.93 1.47,0.93 1.884,0.515 1.884,0 1.884,-0.527 1.47,-0.955 0.942,-0.955 0.427,-0.955 0,-0.527 0,0"
             style="fill:#b4b3b4;fill-opacity:1;fill-rule:nonzero;stroke:none"
             id="path120"
             inkscape:connector-curvature="0" /></g></g></g></g></svg>