<?xml version="1.0" encoding="UTF-8" standalone="no"?>
<!-- Created with Inkscape (http://www.inkscape.org/) -->

<svg
   xmlns:dc="http://purl.org/dc/elements/1.1/"
   xmlns:cc="http://creativecommons.org/ns#"
   xmlns:rdf="http://www.w3.org/1999/02/22-rdf-syntax-ns#"
   xmlns:svg="http://www.w3.org/2000/svg"
   xmlns="http://www.w3.org/2000/svg"
   xmlns:sodipodi="http://sodipodi.sourceforge.net/DTD/sodipodi-0.dtd"
   xmlns:inkscape="http://www.inkscape.org/namespaces/inkscape"
   id="svg2"
   version="1.1"
   inkscape:version="0.91 r13725"
   xml:space="preserve"
   width="457.4675"
   height="110.818"
   viewBox="0 0 457.4675 110.818"
   sodipodi:docname="vaadin.svg"
   inkscape:export-filename="D:\Home\git\Digitkoodit\titeenit16\public\images\sponsorit\vaadin.png"
   inkscape:export-xdpi="90"
   inkscape:export-ydpi="90"><metadata
     id="metadata8"><rdf:RDF><cc:Work
         rdf:about=""><dc:format>image/svg+xml</dc:format><dc:type
           rdf:resource="http://purl.org/dc/dcmitype/StillImage" /><dc:title></dc:title></cc:Work></rdf:RDF></metadata><defs
     id="defs6"><clipPath
       clipPathUnits="userSpaceOnUse"
       id="clipPath16"><path
         d="m 0,88.654 365.974,0 L 365.974,0 0,0 0,88.654 Z"
         id="path18"
         inkscape:connector-curvature="0" /></clipPath></defs><sodipodi:namedview
     pagecolor="#ffffff"
     bordercolor="#666666"
     borderopacity="1"
     objecttolerance="10"
     gridtolerance="10"
     guidetolerance="10"
     inkscape:pageopacity="0"
     inkscape:pageshadow="2"
     inkscape:window-width="690"
     inkscape:window-height="480"
     id="namedview4"
     showgrid="false"
     inkscape:zoom="0.66452808"
     inkscape:cx="67.215619"
     inkscape:cy="55.409"
     inkscape:window-x="0"
     inkscape:window-y="0"
     inkscape:window-maximized="0"
     inkscape:current-layer="g10" /><g
     id="g10"
     inkscape:groupmode="layer"
     inkscape:label="vaadin"
     transform="matrix(1.25,0,0,-1.25,0,110.818)"><g
       id="g12"><g
         id="g14"
         clip-path="url(#clipPath16)"><g
           id="g20"
           transform="translate(206.7848,20.7872)"><path
             d="m 0,0 -4.22,0 -0.632,0 c -3.076,0 -5.715,2.639 -5.715,5.715 l 0,29.898 c 0,3.799 2.963,5.716 5.715,5.716 l 0.632,0 c 2.751,0 5.715,-1.917 5.715,-5.716 l 0,-24.235 C 4.721,10.966 6.347,8.25 6.347,5.715 6.347,2.965 4.431,0 0.632,0 L 0,0 Z M 24.191,23.403 24.164,4.788 C 24.164,0.99 21.4,0 17.784,0 c -2.751,0 -5.716,0.99 -5.716,4.788 -0.025,0.368 -0.039,25.104 -0.039,25.104 -3.225,0.413 -4.852,3.129 -4.852,5.664 0,2.75 1.918,5.715 5.716,5.715 l 4.852,0 c 1.981,0 3.78,-1.093 4.811,-2.695 3.302,2.692 7.929,4.117 12.295,4.117 12.206,0 19.711,-8.972 19.747,-20.114 l 0.009,-11.183 c 3.227,-0.413 4.853,-3.129 4.853,-5.663 0,-2.751 -1.918,-5.716 -5.715,-5.716 l -0.633,0 -4.219,0 -0.633,0 c -3.077,0 -5.715,2.64 -5.715,5.716 l 0,1.533 0.006,15.972 c 0,5.059 -3.31,8.954 -9.277,8.954 -4.766,0 -9.083,-3.967 -9.083,-8.789 m -104.859,-2.02 c 0,5.19 -4.319,9.424 -9.565,9.424 -5.367,0 -9.564,-4.423 -9.564,-9.843 0,-5.143 4.34,-9.425 9.424,-9.425 5.464,0 9.705,4.382 9.705,9.844 m 11.735,-10.006 c 3.223,-0.413 4.851,-3.128 4.851,-5.662 0,-2.75 -1.917,-5.715 -5.715,-5.715 l -4.852,0 c -2.006,0 -3.814,1.117 -4.836,2.736 -3.199,-1.897 -6.947,-2.984 -10.991,-2.984 -11.402,0 -21.056,9.519 -21.056,21.057 0,11.832 9.221,21.784 21.299,21.784 11.516,0 21.122,-9.208 21.298,-20.738 l 0.002,-10.478 z m -119.703,-8.334 -11.695,27.799 -0.732,0 c -3.803,0 -5.722,2.967 -5.722,5.722 0,2.754 1.919,5.721 5.722,5.721 l 4.532,0 c 2.426,0 4.492,-1.573 5.283,-3.523 l 8.96,-23.478 8.976,23.515 c 0.811,1.818 2.795,3.486 5.266,3.486 l 4.532,0 c 3.803,0 5.722,-2.967 5.722,-5.721 0,-2.755 -1.919,-5.722 -5.722,-5.722 l -0.732,0 -11.694,-27.799 c -0.808,-1.875 -2.257,-3.496 -6.335,-3.496 -4.098,0 -5.551,1.615 -6.361,3.496 m 168.021,8.428 c 3.225,-0.413 4.852,-3.128 4.852,-5.662 0,-2.752 -1.916,-5.716 -5.715,-5.716 l -4.852,0 c -2.039,0 -3.877,1.156 -4.89,2.823 -3.085,-1.801 -6.658,-2.846 -10.452,-2.846 -11.831,0 -21.784,9.22 -21.784,21.298 0,11.623 9.376,21.3 21.055,21.3 3.74,0 7.269,-0.912 10.355,-2.54 l 0,11.109 c 0,3.798 2.965,5.148 5.716,5.148 2.751,0 5.715,-1.35 5.715,-5.148 l 0,-29.438 0,-1.205 0,-9.123 z m -21.632,19.462 c -5.188,0 -9.423,-4.319 -9.423,-9.564 0,-5.368 4.423,-9.564 9.844,-9.564 5.142,0 9.425,4.339 9.425,9.423 0,5.466 -4.382,9.705 -9.846,9.705 m -85.708,-9.55 c 0,5.19 -4.319,9.424 -9.565,9.424 -5.367,0 -9.564,-4.423 -9.564,-9.843 0,-5.143 4.339,-9.425 9.423,-9.425 5.466,0 9.706,4.382 9.706,9.844 m 11.735,-10.006 c 3.223,-0.413 4.852,-3.128 4.852,-5.662 0,-2.75 -1.918,-5.715 -5.716,-5.715 l -4.852,0 c -2.006,0 -3.813,1.117 -4.837,2.736 -3.197,-1.897 -6.945,-2.984 -10.99,-2.984 -11.401,0 -21.055,9.519 -21.055,21.057 0,11.832 9.22,21.784 21.297,21.784 11.517,0 21.124,-9.208 21.299,-20.738 l 0.002,-10.478 z M 1.136,49.505 c 0,-3.798 -2.964,-5.715 -5.715,-5.715 l -0.632,0 c -2.751,0 -5.716,1.917 -5.716,5.715 l 0,0.854 c 0,3.798 2.965,5.715 5.716,5.715 l 0.632,0 c 2.751,0 5.715,-1.917 5.715,-5.715 l 0,-0.854 z"
             style="fill:#ffffff;fill-opacity:1;fill-rule:evenodd;stroke:none"
             id="path22"
             inkscape:connector-curvature="0" /></g><g
           id="g24"
           transform="translate(293.4431,14.7116)"><path
             d="m 0,0 0,19.613 c 0,8.924 6.864,9.612 10.296,9.905 C 6.864,30.009 0,30.695 0,39.618 l 0,19.615 c 0,4.118 -1.863,5.884 -4.609,5.884 l -2.453,0 c -2.549,0 -4.412,1.372 -4.412,4.412 0,2.844 1.863,4.414 4.412,4.414 l 7.258,0 c 8.531,0 12.749,-4.022 12.749,-13.043 l 0,-20.006 c 0,-5.982 2.548,-6.571 5.001,-6.571 3.237,0 4.708,-2.352 4.708,-4.707 0,-2.353 -1.471,-4.708 -4.708,-4.708 -2.453,0 -5.001,-0.587 -5.001,-6.57 l 0,-20.006 c 0,-9.023 -4.218,-13.044 -12.749,-13.044 l -7.258,0 c -2.549,0 -4.412,1.571 -4.412,4.414 0,3.04 1.863,4.414 4.412,4.414 l 2.453,0 C -1.863,-5.884 0,-4.119 0,0 M 69.41,24.031 38.483,13.59 l 0,-0.654 c 0,-3.394 -2.649,-5.108 -5.108,-5.108 -2.459,0 -5.109,1.714 -5.109,5.108 l 0,4.046 c 0,2.166 1.405,4.011 3.146,4.717 l 27.071,7.998 -27.105,8.015 c -1.622,0.725 -3.112,2.495 -3.112,4.701 l 0,4.046 c 0,3.395 2.65,5.109 5.109,5.109 2.459,0 5.108,-1.714 5.108,-5.109 l 0,-0.653 30.927,-10.44 c 1.675,-0.722 3.121,-2.015 3.121,-5.656 0,-3.659 -1.441,-4.956 -3.121,-5.679"
             style="fill:#00b4f0;fill-opacity:1;fill-rule:nonzero;stroke:none"
             id="path26"
             inkscape:connector-curvature="0" /></g></g></g></g></svg>